# xmcd CD database file
#
# Track frame offsets:
#	150
#	32804
#	53217
#	87988
#	108610
#	136143
#	144016
#	184011
#	211558
#
# Disc length: 3305 seconds
#
# Revision: 0
# Processed by: cddbd v1.5.2PL0 Copyright (c) Steve Scherf et al.
# Submitted via: CDex 1.70beta2
#
DISCID=720ce709
DTITLE=Branford Marsalis, Joey Caldarazzo - Songs of Mirth And Melancholy
DYEAR=2011
DGENRE=Jazz
TTITLE0=One Way
TTITLE1=The Bard Lachrymose
TTITLE2=La Valse Kendall
TTITLE3=Face On The Barroom Floor
TTITLE4=Endymion
TTITLE5=Die Trauernde
TTITLE6=Hope
TTITLE7=Precious
TTITLE8=Bri's Dance
EXTD=YEAR: 2011
EXTT0=
EXTT1=
EXTT2=
EXTT3=
EXTT4=
EXTT5=
EXTT6=
EXTT7=
EXTT8=
PLAYORDER=
